<?xml version="1.0" encoding="UTF-8" standalone="no"?>
<svg
   xmlns:dc="http://purl.org/dc/elements/1.1/"
   xmlns:cc="http://creativecommons.org/ns#"
   xmlns:rdf="http://www.w3.org/1999/02/22-rdf-syntax-ns#"
   xmlns:svg="http://www.w3.org/2000/svg"
   xmlns="http://www.w3.org/2000/svg"
   xmlns:sodipodi="http://sodipodi.sourceforge.net/DTD/sodipodi-0.dtd"
   xmlns:inkscape="http://www.inkscape.org/namespaces/inkscape"
   version="1.1"
   width="688"
   height="160"
   viewBox="0 0 688 160"
   id="svg3693"
   inkscape:version="0.91+devel+osxmenu r12855"
   sodipodi:docname="icons.svg">
  <metadata
     id="metadata3846">
    <rdf:RDF>
      <cc:Work
         rdf:about="">
        <dc:format>image/svg+xml</dc:format>
        <dc:type
           rdf:resource="http://purl.org/dc/dcmitype/StillImage" />
      </cc:Work>
    </rdf:RDF>
  </metadata>
  <defs
     id="defs3844" />
  <sodipodi:namedview
     pagecolor="#ffffff"
     bordercolor="#666666"
     borderopacity="1"
     objecttolerance="10"
     gridtolerance="10"
     guidetolerance="10"
     inkscape:pageopacity="0"
     inkscape:pageshadow="2"
     inkscape:window-width="1440"
     inkscape:window-height="851"
     id="namedview3842"
     showgrid="false"
     showguides="true"
     inkscape:guide-bbox="true"
     inkscape:zoom="6.4241381"
     inkscape:cx="144.7354"
     inkscape:cy="10.051965"
     inkscape:window-x="0"
     inkscape:window-y="23"
     inkscape:window-maximized="0"
     inkscape:current-layer="svg3693" />
  <svg
     id="icon-search"
     width="26"
     height="28"
     viewBox="0 0 26 28"
     x="0"
     y="0"
     version="1.1">
    <path
       d="M18 13c0-3.859-3.141-7-7-7s-7 3.141-7 7 3.141 7 7 7 7-3.141 7-7zM26 26c0 1.094-0.906 2-2 2-0.531 0-1.047-0.219-1.406-0.594l-5.359-5.344c-1.828 1.266-4.016 1.937-6.234 1.937-6.078 0-11-4.922-11-11s4.922-11 11-11 11 4.922 11 11c0 2.219-0.672 4.406-1.937 6.234l5.359 5.359c0.359 0.359 0.578 0.875 0.578 1.406z"
       id="path3696" />
  </svg>
  <svg
     id="icon-star"
     width="26"
     height="28"
     viewBox="0 0 26 28"
     x="44"
     y="0"
     version="1.1">
    <path
       d="M26 10.109c0 0.281-0.203 0.547-0.406 0.75l-5.672 5.531 1.344 7.812c0.016 0.109 0.016 0.203 0.016 0.313 0 0.406-0.187 0.781-0.641 0.781-0.219 0-0.438-0.078-0.625-0.187l-7.016-3.687-7.016 3.687c-0.203 0.109-0.406 0.187-0.625 0.187-0.453 0-0.656-0.375-0.656-0.781 0-0.109 0.016-0.203 0.031-0.313l1.344-7.812-5.688-5.531c-0.187-0.203-0.391-0.469-0.391-0.75 0-0.469 0.484-0.656 0.875-0.719l7.844-1.141 3.516-7.109c0.141-0.297 0.406-0.641 0.766-0.641s0.625 0.344 0.766 0.641l3.516 7.109 7.844 1.141c0.375 0.063 0.875 0.25 0.875 0.719z"
       id="path3699" />
  </svg>
  <svg
     id="icon-star-o"
     width="26"
     height="28"
     viewBox="0 0 26 28"
     x="88"
     y="0"
     version="1.1">
    <path
       d="M17.766 15.687l4.781-4.641-6.594-0.969-2.953-5.969-2.953 5.969-6.594 0.969 4.781 4.641-1.141 6.578 5.906-3.109 5.891 3.109zM26 10.109c0 0.281-0.203 0.547-0.406 0.75l-5.672 5.531 1.344 7.812c0.016 0.109 0.016 0.203 0.016 0.313 0 0.422-0.187 0.781-0.641 0.781-0.219 0-0.438-0.078-0.625-0.187l-7.016-3.687-7.016 3.687c-0.203 0.109-0.406 0.187-0.625 0.187-0.453 0-0.656-0.375-0.656-0.781 0-0.109 0.016-0.203 0.031-0.313l1.344-7.812-5.688-5.531c-0.187-0.203-0.391-0.469-0.391-0.75 0-0.469 0.484-0.656 0.875-0.719l7.844-1.141 3.516-7.109c0.141-0.297 0.406-0.641 0.766-0.641s0.625 0.344 0.766 0.641l3.516 7.109 7.844 1.141c0.375 0.063 0.875 0.25 0.875 0.719z"
       id="path3702" />
  </svg>
  <svg
     id="icon-user"
     width="20"
     height="28"
     viewBox="0 0 20 28"
     x="132"
     y="0"
     version="1.1">
    <path
       d="M20 21.859c0 2.281-1.5 4.141-3.328 4.141h-13.344c-1.828 0-3.328-1.859-3.328-4.141 0-4.109 1.016-8.859 5.109-8.859 1.266 1.234 2.984 2 4.891 2s3.625-0.766 4.891-2c4.094 0 5.109 4.75 5.109 8.859zM16 8c0 3.313-2.688 6-6 6s-6-2.688-6-6 2.688-6 6-6 6 2.688 6 6z"
       id="path3705" />
  </svg>
  <svg
     id="icon-check"
     width="28"
     height="28"
     viewBox="0 0 28 28"
     x="176"
     y="0"
     version="1.1">
    <path
       d="M26.109 8.844c0 0.391-0.156 0.781-0.438 1.062l-13.438 13.438c-0.281 0.281-0.672 0.438-1.062 0.438s-0.781-0.156-1.062-0.438l-7.781-7.781c-0.281-0.281-0.438-0.672-0.438-1.062s0.156-0.781 0.438-1.062l2.125-2.125c0.281-0.281 0.672-0.438 1.062-0.438s0.781 0.156 1.062 0.438l4.594 4.609 10.25-10.266c0.281-0.281 0.672-0.438 1.062-0.438s0.781 0.156 1.062 0.438l2.125 2.125c0.281 0.281 0.438 0.672 0.438 1.062z"
       id="path3708" />
  </svg>
  <svg
     id="icon-close"
     width="22"
     height="28"
     viewBox="0 0 22 28"
     x="220"
     y="0"
     version="1.1">
    <path
       d="M20.281 20.656c0 0.391-0.156 0.781-0.438 1.062l-2.125 2.125c-0.281 0.281-0.672 0.438-1.062 0.438s-0.781-0.156-1.062-0.438l-4.594-4.594-4.594 4.594c-0.281 0.281-0.672 0.438-1.062 0.438s-0.781-0.156-1.062-0.438l-2.125-2.125c-0.281-0.281-0.438-0.672-0.438-1.062s0.156-0.781 0.438-1.062l4.594-4.594-4.594-4.594c-0.281-0.281-0.438-0.672-0.438-1.062s0.156-0.781 0.438-1.062l2.125-2.125c0.281-0.281 0.672-0.438 1.062-0.438s0.781 0.156 1.062 0.438l4.594 4.594 4.594-4.594c0.281-0.281 0.672-0.438 1.062-0.438s0.781 0.156 1.062 0.438l2.125 2.125c0.281 0.281 0.438 0.672 0.438 1.062s-0.156 0.781-0.438 1.062l-4.594 4.594 4.594 4.594c0.281 0.281 0.438 0.672 0.438 1.062z"
       id="path3711" />
  </svg>
  <svg
     id="icon-search-plus"
     width="26"
     height="28"
     viewBox="0 0 26 28"
     x="264"
     y="0"
     version="1.1">
    <path
       d="M16 12.5v1c0 0.266-0.234 0.5-0.5 0.5h-3.5v3.5c0 0.266-0.234 0.5-0.5 0.5h-1c-0.266 0-0.5-0.234-0.5-0.5v-3.5h-3.5c-0.266 0-0.5-0.234-0.5-0.5v-1c0-0.266 0.234-0.5 0.5-0.5h3.5v-3.5c0-0.266 0.234-0.5 0.5-0.5h1c0.266 0 0.5 0.234 0.5 0.5v3.5h3.5c0.266 0 0.5 0.234 0.5 0.5zM18 13c0-3.859-3.141-7-7-7s-7 3.141-7 7 3.141 7 7 7 7-3.141 7-7zM26 26c0 1.109-0.891 2-2 2-0.531 0-1.047-0.219-1.406-0.594l-5.359-5.344c-1.828 1.266-4.016 1.937-6.234 1.937-6.078 0-11-4.922-11-11s4.922-11 11-11 11 4.922 11 11c0 2.219-0.672 4.406-1.937 6.234l5.359 5.359c0.359 0.359 0.578 0.875 0.578 1.406z"
       id="path3714" />
  </svg>
  <svg
     id="icon-search-minus"
     width="26"
     height="28"
     viewBox="0 0 26 28"
     x="308"
     y="0"
     version="1.1">
    <path
       d="M16 12.5v1c0 0.266-0.234 0.5-0.5 0.5h-9c-0.266 0-0.5-0.234-0.5-0.5v-1c0-0.266 0.234-0.5 0.5-0.5h9c0.266 0 0.5 0.234 0.5 0.5zM18 13c0-3.859-3.141-7-7-7s-7 3.141-7 7 3.141 7 7 7 7-3.141 7-7zM26 26c0 1.109-0.891 2-2 2-0.531 0-1.047-0.219-1.406-0.594l-5.359-5.344c-1.828 1.266-4.016 1.937-6.234 1.937-6.078 0-11-4.922-11-11s4.922-11 11-11 11 4.922 11 11c0 2.219-0.672 4.406-1.937 6.234l5.359 5.359c0.359 0.359 0.578 0.875 0.578 1.406z"
       id="path3717" />
  </svg>
  <svg
     id="icon-power-off"
     width="24"
     height="28"
     viewBox="0 0 24 28"
     x="352"
     y="0"
     version="1.1">
    <path
       d="M24 14c0 6.609-5.391 12-12 12s-12-5.391-12-12c0-3.797 1.75-7.297 4.797-9.578 0.891-0.672 2.141-0.5 2.797 0.391 0.672 0.875 0.484 2.141-0.391 2.797-2.031 1.531-3.203 3.859-3.203 6.391 0 4.406 3.594 8 8 8s8-3.594 8-8c0-2.531-1.172-4.859-3.203-6.391-0.875-0.656-1.062-1.922-0.391-2.797 0.656-0.891 1.922-1.062 2.797-0.391 3.047 2.281 4.797 5.781 4.797 9.578zM14 2v10c0 1.094-0.906 2-2 2s-2-0.906-2-2v-10c0-1.094 0.906-2 2-2s2 0.906 2 2z"
       id="path3720" />
  </svg>
  <svg
     id="icon-cog"
     width="24"
     height="28"
     viewBox="0 0 24 28"
     x="396"
     y="0"
     version="1.1">
    <path
       d="M16 14c0-2.203-1.797-4-4-4s-4 1.797-4 4 1.797 4 4 4 4-1.797 4-4zM24 12.297v3.469c0 0.234-0.187 0.516-0.438 0.562l-2.891 0.438c-0.172 0.5-0.359 0.969-0.609 1.422 0.531 0.766 1.094 1.453 1.672 2.156 0.094 0.109 0.156 0.25 0.156 0.391s-0.047 0.25-0.141 0.359c-0.375 0.5-2.484 2.797-3.016 2.797-0.141 0-0.281-0.063-0.406-0.141l-2.156-1.687c-0.453 0.234-0.938 0.438-1.422 0.594-0.109 0.953-0.203 1.969-0.453 2.906-0.063 0.25-0.281 0.438-0.562 0.438h-3.469c-0.281 0-0.531-0.203-0.562-0.469l-0.438-2.875c-0.484-0.156-0.953-0.344-1.406-0.578l-2.203 1.672c-0.109 0.094-0.25 0.141-0.391 0.141s-0.281-0.063-0.391-0.172c-0.828-0.75-1.922-1.719-2.578-2.625-0.078-0.109-0.109-0.234-0.109-0.359 0-0.141 0.047-0.25 0.125-0.359 0.531-0.719 1.109-1.406 1.641-2.141-0.266-0.5-0.484-1.016-0.641-1.547l-2.859-0.422c-0.266-0.047-0.453-0.297-0.453-0.562v-3.469c0-0.234 0.187-0.516 0.422-0.562l2.906-0.438c0.156-0.5 0.359-0.969 0.609-1.437-0.531-0.75-1.094-1.453-1.672-2.156-0.094-0.109-0.156-0.234-0.156-0.375s0.063-0.25 0.141-0.359c0.375-0.516 2.484-2.797 3.016-2.797 0.141 0 0.281 0.063 0.406 0.156l2.156 1.672c0.453-0.234 0.938-0.438 1.422-0.594 0.109-0.953 0.203-1.969 0.453-2.906 0.063-0.25 0.281-0.438 0.562-0.438h3.469c0.281 0 0.531 0.203 0.562 0.469l0.438 2.875c0.484 0.156 0.953 0.344 1.406 0.578l2.219-1.672c0.094-0.094 0.234-0.141 0.375-0.141s0.281 0.063 0.391 0.156c0.828 0.766 1.922 1.734 2.578 2.656 0.078 0.094 0.109 0.219 0.109 0.344 0 0.141-0.047 0.25-0.125 0.359-0.531 0.719-1.109 1.406-1.641 2.141 0.266 0.5 0.484 1.016 0.641 1.531l2.859 0.438c0.266 0.047 0.453 0.297 0.453 0.562z"
       id="path3723" />
  </svg>
  <svg
     id="icon-trash-o"
     width="22"
     height="28"
     viewBox="0 0 22 28"
     x="440"
     y="0"
     version="1.1">
    <path
       d="M8 11.5v9c0 0.281-0.219 0.5-0.5 0.5h-1c-0.281 0-0.5-0.219-0.5-0.5v-9c0-0.281 0.219-0.5 0.5-0.5h1c0.281 0 0.5 0.219 0.5 0.5zM12 11.5v9c0 0.281-0.219 0.5-0.5 0.5h-1c-0.281 0-0.5-0.219-0.5-0.5v-9c0-0.281 0.219-0.5 0.5-0.5h1c0.281 0 0.5 0.219 0.5 0.5zM16 11.5v9c0 0.281-0.219 0.5-0.5 0.5h-1c-0.281 0-0.5-0.219-0.5-0.5v-9c0-0.281 0.219-0.5 0.5-0.5h1c0.281 0 0.5 0.219 0.5 0.5zM18 22.813v-14.812h-14v14.812c0 0.75 0.422 1.188 0.5 1.188h13c0.078 0 0.5-0.438 0.5-1.188zM7.5 6h7l-0.75-1.828c-0.047-0.063-0.187-0.156-0.266-0.172h-4.953c-0.094 0.016-0.219 0.109-0.266 0.172zM22 6.5v1c0 0.281-0.219 0.5-0.5 0.5h-1.5v14.812c0 1.719-1.125 3.187-2.5 3.187h-13c-1.375 0-2.5-1.406-2.5-3.125v-14.875h-1.5c-0.281 0-0.5-0.219-0.5-0.5v-1c0-0.281 0.219-0.5 0.5-0.5h4.828l1.094-2.609c0.313-0.766 1.25-1.391 2.078-1.391h5c0.828 0 1.766 0.625 2.078 1.391l1.094 2.609h4.828c0.281 0 0.5 0.219 0.5 0.5z"
       id="path3726" />
  </svg>
  <svg
     id="icon-clock-o"
     width="24"
     height="28"
     viewBox="0 0 24 28"
     x="484"
     y="0"
     version="1.1">
    <path
       d="M14 8.5v7c0 0.281-0.219 0.5-0.5 0.5h-5c-0.281 0-0.5-0.219-0.5-0.5v-1c0-0.281 0.219-0.5 0.5-0.5h3.5v-5.5c0-0.281 0.219-0.5 0.5-0.5h1c0.281 0 0.5 0.219 0.5 0.5zM20.5 14c0-4.688-3.813-8.5-8.5-8.5s-8.5 3.813-8.5 8.5 3.813 8.5 8.5 8.5 8.5-3.813 8.5-8.5zM24 14c0 6.625-5.375 12-12 12s-12-5.375-12-12 5.375-12 12-12 12 5.375 12 12z"
       id="path3729" />
  </svg>
  <svg
     id="icon-repeat"
     width="24"
     height="28"
     viewBox="0 0 24 28"
     x="528"
     y="0"
     version="1.1">
    <path
       d="M24 4v7c0 0.547-0.453 1-1 1h-7c-0.406 0-0.766-0.25-0.922-0.625-0.156-0.359-0.078-0.797 0.219-1.078l2.156-2.156c-1.469-1.359-3.406-2.141-5.453-2.141-4.406 0-8 3.594-8 8s3.594 8 8 8c2.484 0 4.781-1.125 6.312-3.109 0.078-0.109 0.219-0.172 0.359-0.187 0.141 0 0.281 0.047 0.391 0.141l2.141 2.156c0.187 0.172 0.187 0.469 0.031 0.672-2.281 2.75-5.656 4.328-9.234 4.328-6.609 0-12-5.391-12-12s5.391-12 12-12c3.078 0 6.062 1.234 8.266 3.313l2.031-2.016c0.281-0.297 0.719-0.375 1.094-0.219 0.359 0.156 0.609 0.516 0.609 0.922z"
       id="path3732" />
  </svg>
  <svg
     id="icon-tag"
     width="24"
     height="28"
     viewBox="0 0 24 28"
     x="572"
     y="0"
     version="1.1">
    <path
       d="M7 7c0-1.109-0.891-2-2-2s-2 0.891-2 2 0.891 2 2 2 2-0.891 2-2zM23.672 16c0 0.531-0.219 1.047-0.578 1.406l-7.672 7.688c-0.375 0.359-0.891 0.578-1.422 0.578s-1.047-0.219-1.406-0.578l-11.172-11.188c-0.797-0.781-1.422-2.297-1.422-3.406v-6.5c0-1.094 0.906-2 2-2h6.5c1.109 0 2.625 0.625 3.422 1.422l11.172 11.156c0.359 0.375 0.578 0.891 0.578 1.422z"
       id="path3735" />
  </svg>
  <svg
     id="icon-tags"
     width="30"
     height="28"
     viewBox="0 0 30 28"
     x="616"
     y="0"
     version="1.1">
    <path
       d="M7 7c0-1.109-0.891-2-2-2s-2 0.891-2 2 0.891 2 2 2 2-0.891 2-2zM23.672 16c0 0.531-0.219 1.047-0.578 1.406l-7.672 7.688c-0.375 0.359-0.891 0.578-1.422 0.578s-1.047-0.219-1.406-0.578l-11.172-11.188c-0.797-0.781-1.422-2.297-1.422-3.406v-6.5c0-1.094 0.906-2 2-2h6.5c1.109 0 2.625 0.625 3.422 1.422l11.172 11.156c0.359 0.375 0.578 0.891 0.578 1.422zM29.672 16c0 0.531-0.219 1.047-0.578 1.406l-7.672 7.688c-0.375 0.359-0.891 0.578-1.422 0.578-0.812 0-1.219-0.375-1.75-0.922l7.344-7.344c0.359-0.359 0.578-0.875 0.578-1.406s-0.219-1.047-0.578-1.422l-11.172-11.156c-0.797-0.797-2.312-1.422-3.422-1.422h3.5c1.109 0 2.625 0.625 3.422 1.422l11.172 11.156c0.359 0.375 0.578 0.891 0.578 1.422z"
       id="path3738" />
  </svg>
  <svg
     id="icon-info-circle"
     width="24"
     height="28"
     viewBox="0 0 24 28"
     x="0"
     y="44"
     version="1.1">
    <path
       d="M16 21.5v-2.5c0-0.281-0.219-0.5-0.5-0.5h-1.5v-8c0-0.281-0.219-0.5-0.5-0.5h-5c-0.281 0-0.5 0.219-0.5 0.5v2.5c0 0.281 0.219 0.5 0.5 0.5h1.5v5h-1.5c-0.281 0-0.5 0.219-0.5 0.5v2.5c0 0.281 0.219 0.5 0.5 0.5h7c0.281 0 0.5-0.219 0.5-0.5zM14 7.5v-2.5c0-0.281-0.219-0.5-0.5-0.5h-3c-0.281 0-0.5 0.219-0.5 0.5v2.5c0 0.281 0.219 0.5 0.5 0.5h3c0.281 0 0.5-0.219 0.5-0.5zM24 14c0 6.625-5.375 12-12 12s-12-5.375-12-12 5.375-12 12-12 12 5.375 12 12z"
       id="path3741" />
  </svg>
  <svg
     id="icon-times-circle-o"
     width="24"
     height="28"
     viewBox="0 0 24 28"
     x="44"
     y="44"
     version="1.1">
    <path
       d="M17.141 16.859l-2.281 2.281c-0.203 0.203-0.516 0.203-0.719 0l-2.141-2.141-2.141 2.141c-0.203 0.203-0.516 0.203-0.719 0l-2.281-2.281c-0.203-0.203-0.203-0.516 0-0.719l2.141-2.141-2.141-2.141c-0.203-0.203-0.203-0.516 0-0.719l2.281-2.281c0.203-0.203 0.516-0.203 0.719 0l2.141 2.141 2.141-2.141c0.203-0.203 0.516-0.203 0.719 0l2.281 2.281c0.203 0.203 0.203 0.516 0 0.719l-2.141 2.141 2.141 2.141c0.203 0.203 0.203 0.516 0 0.719zM20.5 14c0-4.688-3.813-8.5-8.5-8.5s-8.5 3.813-8.5 8.5 3.813 8.5 8.5 8.5 8.5-3.813 8.5-8.5zM24 14c0 6.625-5.375 12-12 12s-12-5.375-12-12 5.375-12 12-12 12 5.375 12 12z"
       id="path3744" />
  </svg>
  <svg
     id="icon-check-circle-o"
     width="24"
     height="28"
     viewBox="0 0 24 28"
     x="88"
     y="44"
     version="1.1">
    <path
       d="M18.297 12.703l-6.594 6.594c-0.391 0.391-1.016 0.391-1.406 0l-4.594-4.594c-0.391-0.391-0.391-1.016 0-1.406l1.594-1.594c0.391-0.391 1.016-0.391 1.406 0l2.297 2.297 4.297-4.297c0.391-0.391 1.016-0.391 1.406 0l1.594 1.594c0.391 0.391 0.391 1.016 0 1.406zM20.5 14c0-4.688-3.813-8.5-8.5-8.5s-8.5 3.813-8.5 8.5 3.813 8.5 8.5 8.5 8.5-3.813 8.5-8.5zM24 14c0 6.625-5.375 12-12 12s-12-5.375-12-12 5.375-12 12-12 12 5.375 12 12z"
       id="path3747" />
  </svg>
  <svg
     id="icon-ban"
     width="24"
     height="28"
     viewBox="0 0 24 28"
     x="132"
     y="44"
     version="1.1">
    <path
       d="M20.5 13.953c0-1.703-0.5-3.281-1.359-4.609l-11.781 11.766c1.344 0.875 2.938 1.391 4.641 1.391 4.688 0 8.5-3.828 8.5-8.547zM4.891 18.625l11.797-11.781c-1.344-0.906-2.953-1.422-4.688-1.422-4.688 0-8.5 3.828-8.5 8.531 0 1.734 0.516 3.328 1.391 4.672zM24 13.953c0 6.656-5.375 12.047-12 12.047s-12-5.391-12-12.047c0-6.641 5.375-12.031 12-12.031s12 5.391 12 12.031z"
       id="path3750" />
  </svg>
  <svg
     id="icon-eye"
     width="28"
     height="28"
     viewBox="0 0 28 28"
     x="176"
     y="44"
     version="1.1">
    <path
       d="M26 15c-1.484-2.297-3.516-4.266-5.953-5.516 0.625 1.062 0.953 2.281 0.953 3.516 0 3.859-3.141 7-7 7s-7-3.141-7-7c0-1.234 0.328-2.453 0.953-3.516-2.438 1.25-4.469 3.219-5.953 5.516 2.672 4.125 6.984 7 12 7s9.328-2.875 12-7zM14.75 9c0-0.406-0.344-0.75-0.75-0.75-2.609 0-4.75 2.141-4.75 4.75 0 0.406 0.344 0.75 0.75 0.75s0.75-0.344 0.75-0.75c0-1.781 1.469-3.25 3.25-3.25 0.406 0 0.75-0.344 0.75-0.75zM28 15c0 0.391-0.125 0.75-0.313 1.078-2.875 4.734-8.141 7.922-13.687 7.922s-10.813-3.203-13.687-7.922c-0.187-0.328-0.313-0.688-0.313-1.078s0.125-0.75 0.313-1.078c2.875-4.719 8.141-7.922 13.687-7.922s10.813 3.203 13.687 7.922c0.187 0.328 0.313 0.688 0.313 1.078z"
       id="path3753" />
  </svg>
  <svg
     id="icon-eye-slash"
     width="28"
     height="28"
     viewBox="0 0 28 28"
     x="220"
     y="44"
     version="1.1">
    <path
       d="M8.672 20.859l1.219-2.203c-1.813-1.313-2.891-3.422-2.891-5.656 0-1.234 0.328-2.453 0.953-3.516-2.438 1.25-4.469 3.219-5.953 5.516 1.625 2.516 3.922 4.625 6.672 5.859zM14.75 9c0-0.406-0.344-0.75-0.75-0.75-2.609 0-4.75 2.141-4.75 4.75 0 0.406 0.344 0.75 0.75 0.75s0.75-0.344 0.75-0.75c0-1.797 1.469-3.25 3.25-3.25 0.406 0 0.75-0.344 0.75-0.75zM20.422 6.016c0 0.031 0 0.109-0.016 0.141-3.297 5.891-6.563 11.813-9.859 17.703l-0.766 1.391c-0.094 0.156-0.266 0.25-0.438 0.25-0.281 0-1.766-0.906-2.094-1.094-0.156-0.094-0.25-0.25-0.25-0.438 0-0.25 0.531-1.094 0.688-1.359-3.031-1.375-5.578-3.719-7.375-6.531-0.203-0.313-0.313-0.688-0.313-1.078 0-0.375 0.109-0.766 0.313-1.078 3.094-4.75 7.922-7.922 13.687-7.922 0.938 0 1.891 0.094 2.812 0.266l0.844-1.516c0.094-0.156 0.25-0.25 0.438-0.25 0.281 0 1.75 0.906 2.078 1.094 0.156 0.094 0.25 0.25 0.25 0.422zM21 13c0 2.906-1.797 5.5-4.5 6.531l4.375-7.844c0.078 0.438 0.125 0.875 0.125 1.313zM28 15c0 0.406-0.109 0.734-0.313 1.078-0.484 0.797-1.094 1.563-1.703 2.266-3.063 3.516-7.281 5.656-11.984 5.656l1.156-2.063c4.547-0.391 8.406-3.156 10.844-6.937-1.156-1.797-2.641-3.375-4.406-4.594l0.984-1.75c1.937 1.297 3.891 3.25 5.109 5.266 0.203 0.344 0.313 0.672 0.313 1.078z"
       id="path3756" />
  </svg>
  <svg
     id="icon-exclamation-triangle"
     width="28"
     height="28"
     viewBox="0 0 28 28"
     x="264"
     y="44"
     version="1.1">
    <path
       d="M16 21.484v-2.969c0-0.281-0.219-0.516-0.5-0.516h-3c-0.281 0-0.5 0.234-0.5 0.516v2.969c0 0.281 0.219 0.516 0.5 0.516h3c0.281 0 0.5-0.234 0.5-0.516zM15.969 15.641l0.281-7.172c0-0.094-0.047-0.219-0.156-0.297-0.094-0.078-0.234-0.172-0.375-0.172h-3.437c-0.141 0-0.281 0.094-0.375 0.172-0.109 0.078-0.156 0.234-0.156 0.328l0.266 7.141c0 0.203 0.234 0.359 0.531 0.359h2.891c0.281 0 0.516-0.156 0.531-0.359zM15.75 1.047l12 22c0.344 0.609 0.328 1.359-0.031 1.969s-1.016 0.984-1.719 0.984h-24c-0.703 0-1.359-0.375-1.719-0.984s-0.375-1.359-0.031-1.969l12-22c0.344-0.641 1.016-1.047 1.75-1.047s1.406 0.406 1.75 1.047z"
       id="path3759" />
  </svg>
  <svg
     id="icon-calendar"
     width="26"
     height="28"
     viewBox="0 0 26 28"
     x="308"
     y="44"
     version="1.1">
    <path
       d="M2 26h4.5v-4.5h-4.5v4.5zM7.5 26h5v-4.5h-5v4.5zM2 20.5h4.5v-5h-4.5v5zM7.5 20.5h5v-5h-5v5zM2 14.5h4.5v-4.5h-4.5v4.5zM13.5 26h5v-4.5h-5v4.5zM7.5 14.5h5v-4.5h-5v4.5zM19.5 26h4.5v-4.5h-4.5v4.5zM13.5 20.5h5v-5h-5v5zM8 7v-4.5c0-0.266-0.234-0.5-0.5-0.5h-1c-0.266 0-0.5 0.234-0.5 0.5v4.5c0 0.266 0.234 0.5 0.5 0.5h1c0.266 0 0.5-0.234 0.5-0.5zM19.5 20.5h4.5v-5h-4.5v5zM13.5 14.5h5v-4.5h-5v4.5zM19.5 14.5h4.5v-4.5h-4.5v4.5zM20 7v-4.5c0-0.266-0.234-0.5-0.5-0.5h-1c-0.266 0-0.5 0.234-0.5 0.5v4.5c0 0.266 0.234 0.5 0.5 0.5h1c0.266 0 0.5-0.234 0.5-0.5zM26 6v20c0 1.094-0.906 2-2 2h-22c-1.094 0-2-0.906-2-2v-20c0-1.094 0.906-2 2-2h2v-1.5c0-1.375 1.125-2.5 2.5-2.5h1c1.375 0 2.5 1.125 2.5 2.5v1.5h6v-1.5c0-1.375 1.125-2.5 2.5-2.5h1c1.375 0 2.5 1.125 2.5 2.5v1.5h2c1.094 0 2 0.906 2 2z"
       id="path3762" />
  </svg>
  <svg
     id="icon-bar-chart"
     width="32"
     height="28"
     viewBox="0 0 32 28"
     x="352"
     y="44"
     version="1.1">
    <path
       d="M10 14v8h-4v-8h4zM16 6v16h-4v-16h4zM32 24v2h-32v-24h2v22h30zM22 10v12h-4v-12h4zM28 4v18h-4v-18h4z"
       id="path3765" />
  </svg>
  <svg
     id="icon-thumb-tack"
     width="18"
     height="28"
     viewBox="0 0 18 28"
     x="396"
     y="44"
     version="1.1">
    <path
       d="M7.5 13.5v-7c0-0.281-0.219-0.5-0.5-0.5s-0.5 0.219-0.5 0.5v7c0 0.281 0.219 0.5 0.5 0.5s0.5-0.219 0.5-0.5zM18 19c0 0.547-0.453 1-1 1h-6.703l-0.797 7.547c-0.031 0.25-0.234 0.453-0.484 0.453h-0.016c-0.25 0-0.453-0.172-0.5-0.422l-1.188-7.578h-6.312c-0.547 0-1-0.453-1-1 0-2.562 1.937-5 4-5v-8c-1.094 0-2-0.906-2-2s0.906-2 2-2h10c1.094 0 2 0.906 2 2s-0.906 2-2 2v8c2.063 0 4 2.438 4 5z"
       id="path3768" />
  </svg>
  <svg
     id="icon-arrow-circle-left"
     width="24"
     height="28"
     viewBox="0 0 24 28"
     x="440"
     y="44"
     version="1.1">
    <path
       d="M20 15v-2c0-0.547-0.453-1-1-1h-7.844l2.953-2.953c0.187-0.187 0.297-0.438 0.297-0.703s-0.109-0.516-0.297-0.703l-1.422-1.422c-0.187-0.187-0.438-0.281-0.703-0.281s-0.516 0.094-0.703 0.281l-7.078 7.078c-0.187 0.187-0.281 0.438-0.281 0.703s0.094 0.516 0.281 0.703l7.078 7.078c0.187 0.187 0.438 0.281 0.703 0.281s0.516-0.094 0.703-0.281l1.422-1.422c0.187-0.187 0.281-0.438 0.281-0.703s-0.094-0.516-0.281-0.703l-2.953-2.953h7.844c0.547 0 1-0.453 1-1zM24 14c0 6.625-5.375 12-12 12s-12-5.375-12-12 5.375-12 12-12 12 5.375 12 12z"
       id="path3771" />
  </svg>
  <svg
     id="icon-arrow-circle-right"
     width="24"
     height="28"
     viewBox="0 0 24 28"
     x="484"
     y="44"
     version="1.1">
    <path
       d="M20.078 14c0-0.266-0.094-0.516-0.281-0.703l-7.078-7.078c-0.187-0.187-0.438-0.281-0.703-0.281s-0.516 0.094-0.703 0.281l-1.422 1.422c-0.187 0.187-0.281 0.438-0.281 0.703s0.094 0.516 0.281 0.703l2.953 2.953h-7.844c-0.547 0-1 0.453-1 1v2c0 0.547 0.453 1 1 1h7.844l-2.953 2.953c-0.187 0.187-0.297 0.438-0.297 0.703s0.109 0.516 0.297 0.703l1.422 1.422c0.187 0.187 0.438 0.281 0.703 0.281s0.516-0.094 0.703-0.281l7.078-7.078c0.187-0.187 0.281-0.438 0.281-0.703zM24 14c0 6.625-5.375 12-12 12s-12-5.375-12-12 5.375-12 12-12 12 5.375 12 12z"
       id="path3774" />
  </svg>
  <svg
     id="icon-filter"
     width="22"
     height="28"
     viewBox="0 0 22 28"
     x="528"
     y="44"
     version="1.1">
    <path
       d="M21.922 4.609c0.156 0.375 0.078 0.812-0.219 1.094l-7.703 7.703v11.594c0 0.406-0.25 0.766-0.609 0.922-0.125 0.047-0.266 0.078-0.391 0.078-0.266 0-0.516-0.094-0.703-0.297l-4-4c-0.187-0.187-0.297-0.438-0.297-0.703v-7.594l-7.703-7.703c-0.297-0.281-0.375-0.719-0.219-1.094 0.156-0.359 0.516-0.609 0.922-0.609h20c0.406 0 0.766 0.25 0.922 0.609z"
       id="path3777" />
  </svg>
  <svg
     id="icon-caret-down"
     width="16"
     height="28"
     viewBox="0 0 16 28"
     x="572"
     y="44"
     version="1.1">
    <path
       d="M16 11c0 0.266-0.109 0.516-0.297 0.703l-7 7c-0.187 0.187-0.438 0.297-0.703 0.297s-0.516-0.109-0.703-0.297l-7-7c-0.187-0.187-0.297-0.438-0.297-0.703 0-0.547 0.453-1 1-1h14c0.547 0 1 0.453 1 1z"
       id="path3780" />
  </svg>
  <svg
     id="icon-caret-up"
     width="16"
     height="28"
     viewBox="0 0 16 28"
     x="616"
     y="44"
     version="1.1">
    <path
       d="M16 19c0 0.547-0.453 1-1 1h-14c-0.547 0-1-0.453-1-1 0-0.266 0.109-0.516 0.297-0.703l7-7c0.187-0.187 0.438-0.297 0.703-0.297s0.516 0.109 0.703 0.297l7 7c0.187 0.187 0.297 0.438 0.297 0.703z"
       id="path3783" />
  </svg>
  <svg
     id="icon-caret-left"
     width="11"
     height="28"
     viewBox="0 0 11 28"
     x="660"
     y="44"
     version="1.1">
    <path
       d="M10 7v14c0 0.547-0.453 1-1 1-0.266 0-0.516-0.109-0.703-0.297l-7-7c-0.187-0.187-0.297-0.438-0.297-0.703s0.109-0.516 0.297-0.703l7-7c0.187-0.187 0.438-0.297 0.703-0.297 0.547 0 1 0.453 1 1z"
       id="path3786" />
  </svg>
  <svg
     id="icon-caret-right"
     width="9"
     height="28"
     viewBox="0 0 9 28"
     x="0"
     y="88"
     version="1.1">
    <path
       d="M9 14c0 0.266-0.109 0.516-0.297 0.703l-7 7c-0.187 0.187-0.438 0.297-0.703 0.297-0.547 0-1-0.453-1-1v-14c0-0.547 0.453-1 1-1 0.266 0 0.516 0.109 0.703 0.297l7 7c0.187 0.187 0.297 0.438 0.297 0.703z"
       id="path3789" />
  </svg>
  <svg
     id="icon-suitcase"
     width="28"
     height="28"
     viewBox="0 0 28 28"
     x="44"
     y="88"
     version="1.1">
    <path
       d="M10 6h8v-2h-8v2zM4.5 6v20h-1c-1.922 0-3.5-1.578-3.5-3.5v-13c0-1.922 1.578-3.5 3.5-3.5h1zM22 6v20h-16v-20h2v-2.5c0-0.828 0.672-1.5 1.5-1.5h9c0.828 0 1.5 0.672 1.5 1.5v2.5h2zM28 9.5v13c0 1.922-1.578 3.5-3.5 3.5h-1v-20h1c1.922 0 3.5 1.578 3.5 3.5z"
       id="path3792" />
  </svg>
  <svg
     id="icon-mail-reply"
     width="28"
     height="28"
     viewBox="0 0 28 28"
     x="88"
     y="88"
     version="1.1">
    <path
       d="M28 17.5c0 2.188-1.094 5.047-1.984 7.047-0.172 0.359-0.344 0.859-0.578 1.188-0.109 0.156-0.219 0.266-0.438 0.266-0.313 0-0.5-0.25-0.5-0.547 0-0.25 0.063-0.531 0.078-0.781 0.047-0.641 0.078-1.281 0.078-1.922 0-7.453-4.422-8.75-11.156-8.75h-3.5v4c0 0.547-0.453 1-1 1-0.266 0-0.516-0.109-0.703-0.297l-8-8c-0.187-0.187-0.297-0.438-0.297-0.703s0.109-0.516 0.297-0.703l8-8c0.187-0.187 0.438-0.297 0.703-0.297 0.547 0 1 0.453 1 1v4h3.5c5.125 0 11.5 0.906 13.672 6.297 0.656 1.656 0.828 3.453 0.828 5.203z"
       id="path3795" />
  </svg>
  <svg
     id="icon-eur"
     width="16"
     height="28"
     viewBox="0 0 16 28"
     x="132"
     y="88"
     version="1.1">
    <path
       d="M15.25 20.422l0.547 2.484c0.063 0.25-0.078 0.5-0.313 0.578-0.063 0.016-1.516 0.516-3.391 0.516-4.875 0-8.797-2.938-10.109-7.531h-1.484c-0.281 0-0.5-0.234-0.5-0.5v-1.766c0-0.266 0.219-0.5 0.5-0.5h1.031c-0.016-0.5-0.016-1.094 0.016-1.641h-1.047c-0.281 0-0.5-0.219-0.5-0.5v-1.781c0-0.281 0.219-0.5 0.5-0.5h1.531c1.391-4.375 5.391-7.281 10.063-7.281 1.625 0 2.969 0.344 3.031 0.359 0.125 0.031 0.234 0.125 0.313 0.234 0.063 0.109 0.078 0.25 0.047 0.375l-0.672 2.484c-0.063 0.266-0.328 0.422-0.594 0.344-0.016 0-1.078-0.266-2.188-0.266-2.625 0-4.828 1.422-5.875 3.75h7.313c0.156 0 0.297 0.063 0.391 0.187 0.094 0.109 0.141 0.266 0.109 0.406l-0.375 1.781c-0.047 0.234-0.25 0.406-0.5 0.406h-7.625c-0.047 0.5-0.031 1.031 0 1.641h7.172c0.156 0 0.297 0.078 0.391 0.187 0.094 0.125 0.125 0.281 0.094 0.422l-0.375 1.75c-0.047 0.234-0.25 0.406-0.484 0.406h-6.047c1 2.438 3.25 3.969 5.906 3.969 1.359 0 2.469-0.375 2.484-0.375 0.125-0.047 0.281-0.031 0.406 0.031 0.125 0.078 0.203 0.203 0.234 0.328z"
       id="path3798" />
  </svg>
  <svg
     id="icon-gbp"
     width="16"
     height="28"
     viewBox="0 0 16 28"
     x="176"
     y="88"
     version="1.1">
    <path
       d="M15.937 17.766v5.734c0 0.281-0.219 0.5-0.5 0.5h-14.938c-0.281 0-0.5-0.219-0.5-0.5v-2.344c0-0.266 0.219-0.5 0.5-0.5h1.516v-5.984h-1.484c-0.281 0-0.5-0.219-0.5-0.5v-2.047c0-0.281 0.219-0.5 0.5-0.5h1.484v-3.484c0-3.563 2.875-6.141 6.844-6.141 3.125 0 5.141 1.875 5.234 1.953 0.187 0.172 0.203 0.469 0.047 0.672l-1.609 1.984c-0.094 0.109-0.203 0.172-0.344 0.187-0.125 0.016-0.266-0.031-0.359-0.109-0.016-0.016-1.359-1.078-2.938-1.078-1.766 0-2.953 1.062-2.953 2.656v3.359h4.766c0.281 0 0.5 0.219 0.5 0.5v2.047c0 0.281-0.219 0.5-0.5 0.5h-4.766v5.922h6.469v-2.828c0-0.281 0.219-0.5 0.5-0.5h2.531c0.281 0 0.5 0.219 0.5 0.5z"
       id="path3801" />
  </svg>
  <svg
     id="icon-dollar"
     width="16"
     height="28"
     viewBox="0 0 16 28"
     x="220"
     y="88"
     version="1.1">
    <path
       d="M15.281 18.516c0 3.187-2.281 5.703-5.594 6.25v2.734c0 0.281-0.219 0.5-0.5 0.5h-2.109c-0.266 0-0.5-0.219-0.5-0.5v-2.734c-3.656-0.516-5.656-2.703-5.734-2.797-0.156-0.187-0.172-0.453-0.031-0.641l1.609-2.109c0.078-0.109 0.219-0.172 0.359-0.187s0.281 0.031 0.375 0.141c0.031 0.016 2.219 2.109 4.984 2.109 1.531 0 3.187-0.812 3.187-2.578 0-1.5-1.844-2.234-3.953-3.078-2.812-1.109-6.312-2.516-6.312-6.438 0-2.875 2.25-5.25 5.516-5.875v-2.812c0-0.281 0.234-0.5 0.5-0.5h2.109c0.281 0 0.5 0.219 0.5 0.5v2.75c3.172 0.359 4.859 2.078 4.922 2.141 0.156 0.172 0.187 0.406 0.078 0.594l-1.266 2.281c-0.078 0.141-0.203 0.234-0.359 0.25-0.156 0.031-0.297-0.016-0.422-0.109-0.016-0.016-1.906-1.687-4.25-1.687-1.984 0-3.359 0.984-3.359 2.406 0 1.656 1.906 2.391 4.125 3.25 2.875 1.109 6.125 2.375 6.125 6.141z"
       id="path3804" />
  </svg>
  <svg
     id="icon-inr"
     width="14"
     height="28"
     viewBox="0 0 14 28"
     x="264"
     y="88"
     version="1.1">
    <path
       d="M14.031 7.344v1.594c0 0.281-0.219 0.5-0.5 0.5h-2.625c-0.484 3-2.781 4.953-6.328 5.375 2.328 2.484 4.813 5.484 7.172 8.375 0.125 0.141 0.156 0.359 0.063 0.531-0.078 0.172-0.25 0.281-0.453 0.281h-3.047c-0.156 0-0.297-0.063-0.391-0.187-2.516-3.016-4.828-5.781-7.781-8.922-0.094-0.094-0.141-0.219-0.141-0.344v-1.984c0-0.266 0.219-0.5 0.5-0.5h1.75c2.75 0 4.469-0.922 4.922-2.625h-6.672c-0.281 0-0.5-0.219-0.5-0.5v-1.594c0-0.281 0.219-0.5 0.5-0.5h6.453c-0.594-1.172-2-1.766-4.188-1.766h-2.266c-0.281 0-0.5-0.234-0.5-0.5v-2.078c0-0.281 0.219-0.5 0.5-0.5h13c0.281 0 0.5 0.219 0.5 0.5v1.594c0 0.281-0.219 0.5-0.5 0.5h-3.641c0.5 0.641 0.828 1.391 1 2.25h2.672c0.281 0 0.5 0.219 0.5 0.5z"
       id="path3807" />
  </svg>
  <svg
     id="icon-cny"
     width="16"
     height="28"
     viewBox="0 0 16 28"
     x="308"
     y="88"
     version="1.1">
    <path
       d="M9.422 24h-2.688c-0.281 0-0.5-0.219-0.5-0.5v-5.156h-4.5c-0.281 0-0.5-0.219-0.5-0.5v-1.609c0-0.281 0.219-0.5 0.5-0.5h4.5v-1.328h-4.5c-0.281 0-0.5-0.219-0.5-0.5v-1.625c0-0.266 0.219-0.5 0.5-0.5h3.344l-5.016-9.031c-0.078-0.156-0.078-0.344 0-0.5 0.094-0.156 0.266-0.25 0.438-0.25h3.031c0.187 0 0.359 0.109 0.453 0.281l3.359 6.641c0.375 0.734 0.625 1.359 0.875 1.953 0.266-0.672 0.609-1.328 0.906-2.016l2.984-6.562c0.078-0.187 0.266-0.297 0.453-0.297h2.984c0.172 0 0.328 0.094 0.422 0.25 0.094 0.141 0.094 0.328 0.016 0.484l-4.891 9.047h3.359c0.281 0 0.5 0.234 0.5 0.5v1.625c0 0.281-0.219 0.5-0.5 0.5h-4.531v1.328h4.531c0.281 0 0.5 0.219 0.5 0.5v1.609c0 0.281-0.219 0.5-0.5 0.5h-4.531v5.156c0 0.281-0.234 0.5-0.5 0.5z"
       id="path3810" />
  </svg>
  <svg
     id="icon-rouble"
     width="20"
     height="28"
     viewBox="0 0 20 28"
     x="352"
     y="88"
     version="1.1">
    <path
       d="M16.297 8.828c0-2.094-1.484-3.5-3.687-3.5h-5v7h5c2.203 0 3.687-1.406 3.687-3.5zM20 8.828c0 4.016-2.906 6.828-7.078 6.828h-5.313v1.844h7.891c0.281 0 0.5 0.219 0.5 0.5v2c0 0.281-0.219 0.5-0.5 0.5h-7.891v3c0 0.281-0.219 0.5-0.5 0.5h-2.609c-0.281 0-0.5-0.219-0.5-0.5v-3h-3.5c-0.281 0-0.5-0.219-0.5-0.5v-2c0-0.281 0.219-0.5 0.5-0.5h3.5v-1.844h-3.5c-0.281 0-0.5-0.219-0.5-0.5v-2.328c0-0.281 0.219-0.5 0.5-0.5h3.5v-9.828c0-0.281 0.219-0.5 0.5-0.5h8.422c4.172 0 7.078 2.812 7.078 6.828z"
       id="path3813" />
  </svg>
  <svg
     id="icon-krw"
     width="28"
     height="28"
     viewBox="0 0 28 28"
     x="396"
     y="88"
     version="1.1">
    <path
       d="M8.031 18.672l1.266-4.672h-2.484l1.172 4.688c0.016 0.031 0.016 0.063 0.031 0.094 0-0.031 0.016-0.078 0.016-0.109zM9.844 12l0.547-2h-4.562l0.5 2h3.516zM12.844 12h2.172l-0.547-2h-1.094zM19.859 18.688l1.219-4.688h-2.531l1.266 4.672c0.016 0.047 0.016 0.078 0.031 0.109 0-0.031 0.016-0.063 0.016-0.094zM21.594 12l0.516-2h-4.641l0.531 2h3.594zM28 12.5v1c0 0.281-0.219 0.5-0.5 0.5h-3.328l-2.562 9.625c-0.063 0.219-0.266 0.375-0.484 0.375h-2.484c-0.219 0-0.422-0.156-0.484-0.375l-2.594-9.625h-3.266l-2.609 9.625c-0.063 0.219-0.25 0.375-0.484 0.375h-2.484c-0.219 0-0.422-0.156-0.469-0.375l-2.5-9.625h-3.25c-0.281 0-0.5-0.219-0.5-0.5v-1c0-0.281 0.219-0.5 0.5-0.5h2.734l-0.516-2h-2.219c-0.281 0-0.5-0.219-0.5-0.5v-1c0-0.281 0.219-0.5 0.5-0.5h1.703l-1.391-5.375c-0.047-0.156-0.016-0.313 0.078-0.438 0.094-0.109 0.25-0.187 0.406-0.187h2.141c0.234 0 0.438 0.156 0.484 0.375l1.406 5.625h5.609l1.516-5.625c0.063-0.219 0.266-0.375 0.484-0.375h1.969c0.234 0 0.422 0.156 0.484 0.375l1.531 5.625h5.703l1.453-5.625c0.047-0.219 0.25-0.375 0.484-0.375h2.141c0.156 0 0.313 0.078 0.406 0.187 0.094 0.125 0.125 0.297 0.078 0.438l-1.422 5.375h1.734c0.281 0 0.5 0.219 0.5 0.5v1c0 0.281-0.219 0.5-0.5 0.5h-2.266l-0.531 2h2.797c0.281 0 0.5 0.219 0.5 0.5z"
       id="path3816" />
  </svg>
  <svg
     id="icon-bitcoin"
     width="21"
     height="28"
     viewBox="0 0 21 28"
     x="440"
     y="88"
     version="1.1">
    <path
       d="M18.234 10c0.203 2.078-0.672 3.328-2.047 4.031 2.281 0.547 3.719 1.906 3.437 4.953-0.359 3.797-3.172 4.813-7.203 5.031v3.984h-2.406v-3.922c-0.609 0-1.25 0-1.906-0.016v3.938h-2.406v-3.984c-0.562 0-1.125-0.016-1.703-0.016h-3.125l0.484-2.859c1.766 0.031 1.734 0 1.734 0 0.672 0 0.859-0.484 0.906-0.797v-6.281h0.25c-0.094-0.016-0.187-0.016-0.25-0.016v-4.484c-0.094-0.5-0.406-1.062-1.391-1.062 0 0 0.031-0.031-1.734 0v-2.562l3.313 0.016c0.484 0 1 0 1.516-0.016v-3.938h2.406v3.859c0.641-0.016 1.281-0.031 1.906-0.031v-3.828h2.406v3.938c3.094 0.266 5.547 1.219 5.812 4.062zM14.875 18.516c0-3.094-5.094-2.641-6.719-2.641v5.281c1.625 0 6.719 0.344 6.719-2.641zM13.766 11.078c0-2.828-4.25-2.406-5.609-2.406v4.797c1.359 0 5.609 0.313 5.609-2.391z"
       id="path3819" />
  </svg>
  <svg
     id="icon-arrow-circle-o-right"
     width="24"
     height="28"
     viewBox="0 0 24 28"
     x="484"
     y="88"
     version="1.1">
    <path
       d="M18 14c0 0.125-0.047 0.266-0.141 0.359l-5 5c-0.094 0.094-0.234 0.141-0.359 0.141-0.266 0-0.5-0.234-0.5-0.5v-3h-5.5c-0.266 0-0.5-0.234-0.5-0.5v-3c0-0.266 0.234-0.5 0.5-0.5h5.5v-3c0-0.281 0.219-0.5 0.5-0.5 0.141 0 0.266 0.063 0.375 0.156l4.984 4.984c0.094 0.094 0.141 0.234 0.141 0.359zM20.5 14c0-4.688-3.813-8.5-8.5-8.5s-8.5 3.813-8.5 8.5 3.813 8.5 8.5 8.5 8.5-3.813 8.5-8.5zM24 14c0 6.625-5.375 12-12 12s-12-5.375-12-12 5.375-12 12-12 12 5.375 12 12z"
       id="path3822" />
  </svg>
  <svg
     id="icon-arrow-circle-o-left"
     width="24"
     height="28"
     viewBox="0 0 24 28"
     x="528"
     y="88"
     version="1.1">
    <path
       d="M18 12.5v3c0 0.266-0.234 0.5-0.5 0.5h-5.5v3c0 0.281-0.219 0.5-0.5 0.5-0.141 0-0.266-0.063-0.375-0.156l-4.984-4.984c-0.094-0.094-0.141-0.234-0.141-0.359s0.047-0.266 0.141-0.359l5-5c0.094-0.094 0.234-0.141 0.359-0.141 0.266 0 0.5 0.234 0.5 0.5v3h5.5c0.266 0 0.5 0.234 0.5 0.5zM20.5 14c0-4.688-3.813-8.5-8.5-8.5s-8.5 3.813-8.5 8.5 3.813 8.5 8.5 8.5 8.5-3.813 8.5-8.5zM24 14c0 6.625-5.375 12-12 12s-12-5.375-12-12 5.375-12 12-12 12 5.375 12 12z"
       id="path3825" />
  </svg>
  <svg
     id="icon-history"
     width="24"
     height="28"
     viewBox="0 0 24 28"
     x="572"
     y="88"
     version="1.1">
    <path
       d="M24 14c0 6.609-5.391 12-12 12-3.578 0-6.953-1.578-9.234-4.328-0.156-0.203-0.141-0.5 0.031-0.672l2.141-2.156c0.109-0.094 0.25-0.141 0.391-0.141 0.141 0.016 0.281 0.078 0.359 0.187 1.531 1.984 3.828 3.109 6.312 3.109 4.406 0 8-3.594 8-8s-3.594-8-8-8c-2.047 0-3.984 0.781-5.437 2.141l2.141 2.156c0.297 0.281 0.375 0.719 0.219 1.078-0.156 0.375-0.516 0.625-0.922 0.625h-7c-0.547 0-1-0.453-1-1v-7c0-0.406 0.25-0.766 0.625-0.922 0.359-0.156 0.797-0.078 1.078 0.219l2.031 2.016c2.203-2.078 5.187-3.313 8.266-3.313 6.609 0 12 5.391 12 12zM14 9.5v7c0 0.281-0.219 0.5-0.5 0.5h-5c-0.281 0-0.5-0.219-0.5-0.5v-1c0-0.281 0.219-0.5 0.5-0.5h3.5v-5.5c0-0.281 0.219-0.5 0.5-0.5h1c0.281 0 0.5 0.219 0.5 0.5z"
       id="path3828" />
  </svg>
  <svg
     id="icon-trash"
     width="22"
     height="28"
     viewBox="0 0 22 28"
     x="616"
     y="88"
     version="1.1">
    <path
       d="M8 21.5v-11c0-0.281-0.219-0.5-0.5-0.5h-1c-0.281 0-0.5 0.219-0.5 0.5v11c0 0.281 0.219 0.5 0.5 0.5h1c0.281 0 0.5-0.219 0.5-0.5zM12 21.5v-11c0-0.281-0.219-0.5-0.5-0.5h-1c-0.281 0-0.5 0.219-0.5 0.5v11c0 0.281 0.219 0.5 0.5 0.5h1c0.281 0 0.5-0.219 0.5-0.5zM16 21.5v-11c0-0.281-0.219-0.5-0.5-0.5h-1c-0.281 0-0.5 0.219-0.5 0.5v11c0 0.281 0.219 0.5 0.5 0.5h1c0.281 0 0.5-0.219 0.5-0.5zM7.5 6h7l-0.75-1.828c-0.047-0.063-0.187-0.156-0.266-0.172h-4.953c-0.094 0.016-0.219 0.109-0.266 0.172zM22 6.5v1c0 0.281-0.219 0.5-0.5 0.5h-1.5v14.812c0 1.719-1.125 3.187-2.5 3.187h-13c-1.375 0-2.5-1.406-2.5-3.125v-14.875h-1.5c-0.281 0-0.5-0.219-0.5-0.5v-1c0-0.281 0.219-0.5 0.5-0.5h4.828l1.094-2.609c0.313-0.766 1.25-1.391 2.078-1.391h5c0.828 0 1.766 0.625 2.078 1.391l1.094 2.609h4.828c0.281 0 0.5 0.219 0.5 0.5z"
       id="path3831" />
  </svg>
  <svg
     id="icon-line-chart"
     width="32"
     height="28"
     viewBox="0 0 32 28"
     x="0"
     y="132"
     version="1.1">
    <path
       d="M32 24v2h-32v-24h2v22h30zM30 4.5v6.797c0 0.438-0.531 0.672-0.859 0.344l-1.891-1.891-9.891 9.891c-0.203 0.203-0.516 0.203-0.719 0l-3.641-3.641-6.5 6.5-3-3 9.141-9.141c0.203-0.203 0.516-0.203 0.719 0l3.641 3.641 7.25-7.25-1.891-1.891c-0.328-0.328-0.094-0.859 0.344-0.859h6.797c0.281 0 0.5 0.219 0.5 0.5z"
       id="path3834" />
  </svg>
  <svg
     id="icon-toggle-off"
     width="32"
     height="28"
     viewBox="0 0 32 28"
     x="44"
     y="132"
     version="1.1">
    <path
       d="M18 14c0-4.406-3.594-8-8-8s-8 3.594-8 8 3.594 8 8 8 8-3.594 8-8zM30 14c0-4.406-3.594-8-8-8h-6.031c2.438 1.828 4.031 4.734 4.031 8s-1.594 6.172-4.031 8h6.031c4.406 0 8-3.594 8-8zM32 14c0 5.516-4.484 10-10 10h-12c-5.516 0-10-4.484-10-10s4.484-10 10-10h12c5.516 0 10 4.484 10 10z"
       id="path3837" />
  </svg>
  <svg
     id="icon-toggle-on"
     width="32"
     height="28"
     viewBox="0 0 32 28"
     x="88"
     y="132"
     version="1.1">
    <path
       d="M0 14c0-5.516 4.484-10 10-10h12c5.516 0 10 4.484 10 10s-4.484 10-10 10h-12c-5.516 0-10-4.484-10-10zM22 22c4.406 0 8-3.594 8-8s-3.594-8-8-8-8 3.594-8 8 3.594 8 8 8z"
       id="path3840" />
  </svg>
  <path
     style="font-size:12px"
     d="m 131.9043,135.9668 0.0176,0.62695 c 2.39104,2.953 4.72906,5.952 7.15039,8.87891 l -7.20313,8.16992 -0.0566,2.38281 2,-0.01 0,0.01 10.80664,-0.0566 0,-0.01 2.28125,-0.0117 c 0.36402,-2.74356 0.68346,-5.02458 1.26758,-7.56446 l -0.49024,-0.12109 c -0.45694,1.03085 -0.78062,2.13195 -1.75585,2.8164 -0.59924,0.42055 -1.30584,0.57245 -2.0293,0.62696 l 0,0.0449 -5.44531,0.0254 5.52148,-6.66797 -4.8418,-6.05273 c 1.71891,-0.0258 3.39524,-0.0772 4.83399,-0.0586 1.34922,0.0488 1.65282,0.38671 2.14258,1.33399 0.16115,0.48953 0.27193,0.99773 0.3125,1.51172 l 0.53125,0 -0.40821,-4.94336 -0.0117,0 -0.0762,-0.93164 -1.83203,0 -10.71484,0 z"
     id="path603"
     inkscape:connector-curvature="0"
     sodipodi:nodetypes="cccccccccccccccccccccccccccc" />
</svg>
